<svg width="287" height="261" viewBox="0 0 287 261" fill="none" xmlns="http://www.w3.org/2000/svg">
<path d="M57.1683 167.445C55.8197 167.445 54.4711 167.993 53.4803 169.034C51.4711 171.116 51.5537 174.431 53.6454 176.431C65.1773 187.471 80.3422 193.553 96.3328 193.553C112.323 193.553 127.406 187.498 138.938 176.54C141.029 174.54 141.112 171.253 139.103 169.171C137.094 167.089 133.763 167.007 131.672 169.007C122.121 178.102 109.571 183.088 96.3328 183.088C83.0945 183.088 70.4892 178.047 60.9114 168.897C59.8655 167.883 58.5169 167.445 57.1683 167.472V167.445ZM135.717 78.0542C131.534 78.0542 128.121 81.4512 128.121 85.6153V105.997C128.121 110.161 131.534 113.531 135.717 113.531C139.901 113.531 143.314 110.161 143.314 105.997V85.6153C143.314 81.4512 139.901 78.0542 135.717 78.0542ZM51.1408 78.0542C46.9574 78.0542 43.5722 81.4512 43.5722 85.6153V105.997C43.5722 110.161 46.9574 113.531 51.1408 113.531C55.3243 113.531 58.7371 110.161 58.7371 105.997V85.6153C58.7371 81.4512 55.3243 78.0542 51.1408 78.0542ZM79.9569 75.5886C76.4065 75.5886 73.5166 78.4377 73.5166 81.9717V129.092C73.5166 138.05 76.0487 146.241 88.3513 146.926C91.2411 147.09 92.0668 147.036 94.7365 147.036C98.2869 147.036 101.149 144.186 101.149 140.652C101.149 137.118 98.2869 134.269 94.7365 134.269C87.6081 134.269 86.1495 132.352 86.1495 128.982C86.1495 125.612 86.3696 85.5331 86.3696 81.9991C86.3696 78.4651 83.5073 75.616 79.9569 75.616V75.5886ZM136.543 0.744629C101.81 0.744629 69.1681 14.3053 44.618 38.8789C29.0403 54.4942 17.9212 73.3422 11.8663 93.9434C8.64615 95.0666 4.40767 98.3541 2.17835 107.586C0.554523 114.326 0.306833 122.9 1.4903 131.749C2.67377 140.598 5.1783 148.816 8.53605 154.898C8.64614 155.117 8.78374 155.282 8.89383 155.501C13.7103 180.869 26.0128 204.237 44.6455 222.893C69.1956 247.467 101.837 261 136.571 261C171.304 261 203.781 247.521 228.303 223.057C224.532 223.386 220.789 223.715 216.303 223.907C213.909 224.016 211.762 224.016 209.505 224.044C189.386 239.878 164.066 249.357 136.571 249.357C71.3148 249.357 18.2515 196.183 18.2515 130.818C18.2515 65.4523 71.3424 12.3328 136.571 12.3328C191.285 12.3328 237.468 49.7274 250.927 100.381C249.275 102.765 247.734 105.696 246.385 109.093C245.312 111.778 246.661 114.819 249.358 115.86C252.055 116.928 255.082 115.586 256.156 112.901C259.018 105.669 261.88 103.504 262.624 103.23C264.468 104.354 268.101 113.723 265.954 129.749C263.807 145.775 257.807 153.857 255.743 154.432C255.165 154.021 253.349 151.802 252.358 145.666C251.89 142.817 249.193 140.899 246.33 141.365C243.468 141.83 241.541 144.488 242.009 147.337C243.578 157.062 247.101 161.445 250.349 163.418C248.972 168.185 247.239 172.787 245.312 177.307C250.266 176.732 254.807 176.102 258.715 175.444C260.257 171.171 261.633 166.815 262.734 162.377C264.88 160.788 267.137 158.213 269.312 154.295C272.669 148.241 275.146 140.022 276.357 131.174C277.541 122.325 277.293 113.723 275.669 106.984C272.945 95.6967 267.192 93.3133 264 92.9024C262.981 92.7654 261.963 92.7654 260.945 92.9572C254.835 72.7669 243.798 54.2476 228.468 38.9063C203.918 14.3327 171.276 0.772024 136.543 0.772024V0.744629Z" fill="#A7A7A7"/>
<path d="M202.56 217.596C185.784 217.596 174.344 216.211 173.739 216.126C170.879 215.758 168.816 213.073 169.174 210.132C169.531 207.192 172.144 205.072 175.004 205.439C175.169 205.439 192.577 207.56 215.458 206.542C238.173 205.524 251.594 202.047 251.731 202.019C254.536 201.284 257.396 203.036 258.111 205.92C258.826 208.804 257.149 211.744 254.344 212.479C253.766 212.648 239.823 216.239 215.925 217.313C211.195 217.539 206.712 217.624 202.587 217.624L202.56 217.596Z" fill="#47464B"/>
<path d="M212.396 194.95C206.623 194.95 203.142 194.763 202.838 194.763C199.938 194.602 197.7 192.187 197.866 189.37C198.032 186.554 200.518 184.407 203.418 184.542C203.667 184.542 221.236 185.454 244.027 183.039C266.707 180.652 279.967 176.52 280.105 176.467C282.868 175.608 285.851 177.057 286.735 179.74C287.647 182.422 286.127 185.32 283.365 186.178C282.785 186.366 269.055 190.658 245.16 193.18C231.623 194.602 219.993 194.924 212.369 194.924L212.396 194.95Z" fill="#47464B"/>
</svg>
