<svg width="300" height="250" viewBox="0 0 300 250" fill="none" xmlns="http://www.w3.org/2000/svg">
<path d="M110.475 195.2C109.126 195.2 107.778 195.777 106.787 196.792C104.778 198.878 104.833 202.2 106.925 204.204C118.456 215.266 133.62 221.36 149.637 221.36C165.654 221.36 180.707 215.294 192.239 204.314C194.33 202.31 194.413 198.988 192.404 196.902C190.395 194.816 187.065 194.733 184.973 196.737C175.423 205.851 162.874 210.874 149.637 210.874C136.344 210.874 123.795 205.823 114.218 196.655C113.172 195.639 111.823 195.173 110.475 195.2ZM199.862 118.147C195.679 118.147 192.266 121.523 192.266 125.696V146.146C192.266 150.319 195.679 153.668 199.862 153.668C204.045 153.668 207.43 150.319 207.43 146.146V125.696C207.43 121.523 204.045 118.147 199.862 118.147ZM97.8153 118.147C93.6321 118.147 90.2196 121.523 90.2196 125.696V146.146C90.2196 150.319 93.6321 153.668 97.8153 153.668C101.998 153.668 105.411 150.319 105.411 146.146V125.696C105.411 121.523 101.998 118.147 97.8153 118.147ZM153.572 115.649C150.022 115.649 147.16 118.504 147.16 122.045C147.16 125.586 147.38 165.746 147.38 169.122C147.38 172.499 145.921 174.42 138.793 174.42C135.243 174.42 132.381 177.275 132.381 180.816C132.381 184.357 135.243 187.185 138.793 187.185C141.463 187.185 142.289 187.239 145.178 187.075C157.48 186.416 160.012 178.208 160.012 169.232V122.017C160.012 118.476 157.122 115.594 153.572 115.594V115.649ZM279.699 80.5126C281.736 81.2263 287.24 89.6535 288.478 105.794C289.717 121.935 285.561 131.131 283.662 132.147C283.112 131.927 281.378 130.527 279.479 126.464C279.479 125.943 279.479 125.421 279.479 124.927C279.479 113.837 277.938 102.994 275.021 92.5633C275.186 92.179 275.296 91.7947 275.378 91.3829C276.644 83.7243 279.011 80.9792 279.699 80.5675V80.5126ZM19.519 80.5126C20.2071 80.9243 22.5463 83.6694 23.8398 91.328C23.8948 91.63 23.9774 91.9045 24.0599 92.179C21.0877 102.72 19.519 113.673 19.519 124.872C19.519 125.559 19.519 126.245 19.519 126.904C17.7027 130.609 16.1065 131.872 15.5561 132.092C13.6296 131.076 9.47401 121.908 10.7124 105.767C11.9509 89.6261 17.455 81.1988 19.4915 80.4851L19.519 80.5126ZM149.471 0.686996C128.473 0.686996 108.301 5.49081 90.1645 14.4122C89.8893 16.4435 89.5591 18.1454 89.3114 20.3689C88.9811 23.3061 88.8435 25.859 88.6234 28.5765C106.429 18.3376 127.207 12.3259 149.499 12.3259C214.75 12.3259 267.81 62.8071 267.81 124.9C267.81 186.992 214.723 237.501 149.499 237.501C84.2751 237.501 31.1603 186.992 31.1603 124.9C31.1603 107.771 35.3159 91.6025 42.5538 77.0264C42.2786 71.1246 42.196 63.2189 42.4162 54.5171C37.4075 61.462 33.0867 68.7913 29.6742 76.5048C27.2248 72.5794 24.0324 70.3559 20.3171 70.054C8.45574 69.1481 1.6031 87.5399 0.254592 104.998C-0.433424 113.92 0.282112 122.484 2.29112 129.127C5.64864 140.272 11.5381 142.358 14.7304 142.578C14.9781 142.578 15.2258 142.578 15.501 142.578C16.9046 142.578 18.6659 142.276 20.5923 141.26C24.3076 168.271 37.1322 193.224 57.6351 212.796C82.1835 236.211 114.768 249.085 149.444 249.085C184.12 249.085 216.704 236.183 241.253 212.796C261.811 193.196 274.635 168.189 278.296 141.123C280.305 142.248 282.148 142.578 283.607 142.578C283.882 142.578 284.13 142.578 284.35 142.578C296.239 141.672 300.202 122.457 298.881 104.971C298.193 96.0495 296.157 87.6771 293.157 81.4184C288.12 70.9324 282.011 69.7795 278.791 70.0265C274.993 70.3285 271.773 72.6343 269.296 76.697C262.829 62.011 253.389 48.5329 241.225 36.9489C216.677 13.5338 184.092 0.659546 149.416 0.659546L149.471 0.686996Z" fill="#A7A7A7"/>
</svg>
